# xmcd
#
# Track frame offsets: 
#        150
#        14010
#        28269
#        40457
#        50660
#        62037
#        74537
#        85475
#        106257
#        134707
#        153605
#        172030
#        183342
#        199135
#        219034
#        232187
#        245440
#        261467
#
# Disc length: 3698 seconds
#
# Revision: 0
# Processed by: cddbd v1.4PL0 Copyright (c) Steve Scherf et al.
# Submitted via: ExactAudioCopy v0.90a11
#
DISCID=1b0e7012
DTITLE=John Lee Hooker - Brilliant Collection
DYEAR=1900
DGENRE=
TTITLE0=Crazy about that walk
TTITLE1=We're all God's chillun
TTITLE2=I'm mad again
TTITLE3=Want ad blues
TTITLE4=Boom Boom
TTITLE5=Drug store woman
TTITLE6=Send me your pillow
TTITLE7=Let's make it baby
TTITLE8=The right time
TTITLE9=Shake it baby
TTITLE10=Need your love so bad
TTITLE11=This is hip
TTITLE12=One way ticket
TTITLE13=Half a stranger
TTITLE14=Birmingham blues
TTITLE15=Don't look back
TTITLE16=It serves me right to suffer
TTITLE17=Mai Lee
EXTD=
EXTT0=
EXTT1=
EXTT2=
EXTT3=
EXTT4=
EXTT5=
EXTT6=
EXTT7=
EXTT8=
EXTT9=
EXTT10=
EXTT11=
EXTT12=
EXTT13=
EXTT14=
EXTT15=
EXTT16=
EXTT17=
PLAYORDER=
